<?xml version="1.0" encoding="utf-8" standalone="no"?>
<!DOCTYPE svg PUBLIC "-//W3C//DTD SVG 1.1//EN"
  "http://www.w3.org/Graphics/SVG/1.1/DTD/svg11.dtd">
<svg xmlns:xlink="http://www.w3.org/1999/xlink" width="293.4pt" height="247.127496pt" viewBox="0 0 293.4 247.127496" xmlns="http://www.w3.org/2000/svg" version="1.1">
 <metadata>
  <rdf:RDF xmlns:dc="http://purl.org/dc/elements/1.1/" xmlns:cc="http://creativecommons.org/ns#" xmlns:rdf="http://www.w3.org/1999/02/22-rdf-syntax-ns#">
   <cc:Work>
    <dc:type rdf:resource="http://purl.org/dc/dcmitype/StillImage"/>
    <dc:format>image/svg+xml</dc:format>
   </cc:Work>
  </rdf:RDF>
 </metadata>
 <defs>
  <style type="text/css">*{stroke-linejoin: round; stroke-linecap: butt}</style>
 </defs>
 <g id="figure_1">
  <g id="patch_1">
   <path d="M 0 247.127496 
L 293.4 247.127496 
L 293.4 0 
L 0 0 
z
" style="fill: #ffffff"/>
  </g>
  <g id="axes_1">
   <g id="line2d_1">
    <path d="M 63.670277 17.778523 
L 19.881818 77.82522 
L 50.449574 145.730028 
L 124.806062 153.58755 
L 168.593964 93.540483 
L 138.025936 25.636264 
L 63.670277 17.778523 
" clip-path="url(#p8d69742e30)" style="fill: none; stroke: #00008b; stroke-width: 2; stroke-linecap: square"/>
   </g>
   <g id="line2d_2">
    <path d="M 118.692456 140.006645 
L 153.722778 91.968992 
" clip-path="url(#p8d69742e30)" style="fill: none; stroke: #000000; stroke-width: 2.5; stroke-linecap: square"/>
   </g>
   <g id="line2d_3">
    <path d="M 34.753061 79.396781 
L 59.207266 133.720628 
" clip-path="url(#p8d69742e30)" style="fill: none; stroke: #000000; stroke-width: 2.5; stroke-linecap: square"/>
   </g>
   <g id="line2d_4">
    <path d="M 59.207266 133.720628 
L 118.692456 140.006645 
" clip-path="url(#p8d69742e30)" style="fill: none; stroke: #000000; stroke-width: 2.5; stroke-linecap: square"/>
   </g>
   <g id="line2d_5">
    <path d="M 129.268356 37.645617 
L 69.783828 31.359423 
" clip-path="url(#p8d69742e30)" style="fill: none; stroke: #000000; stroke-width: 2.5; stroke-linecap: square"/>
   </g>
   <g id="line2d_6">
    <path d="M 153.722778 91.968992 
L 129.268356 37.645617 
" clip-path="url(#p8d69742e30)" style="fill: none; stroke: #000000; stroke-width: 2.5; stroke-linecap: square"/>
   </g>
   <g id="line2d_7">
    <path d="M 69.783828 31.359423 
L 34.753061 79.396781 
" clip-path="url(#p8d69742e30)" style="fill: none; stroke: #000000; stroke-width: 2.5; stroke-linecap: square"/>
   </g>
   <g id="line2d_8">
    <path d="M 168.593964 93.540483 
L 124.806062 153.58755 
L 155.374361 221.492089 
L 229.730835 229.348973 
L 273.518182 169.301538 
L 242.94961 101.397587 
L 168.593964 93.540483 
" clip-path="url(#p8d69742e30)" style="fill: none; stroke: #00008b; stroke-width: 2; stroke-linecap: square"/>
   </g>
   <g id="line2d_9">
    <path d="M 223.617121 215.768122 
L 258.646998 167.730174 
" clip-path="url(#p8d69742e30)" style="fill: none; stroke: #000000; stroke-width: 2.5; stroke-linecap: square"/>
   </g>
   <g id="line2d_10">
    <path d="M 139.677302 155.158984 
L 164.131942 209.482615 
" clip-path="url(#p8d69742e30)" style="fill: none; stroke: #000000; stroke-width: 2.5; stroke-linecap: square"/>
   </g>
   <g id="line2d_11">
    <path d="M 164.131942 209.482615 
L 223.617121 215.768122 
" clip-path="url(#p8d69742e30)" style="fill: none; stroke: #000000; stroke-width: 2.5; stroke-linecap: square"/>
   </g>
   <g id="line2d_12">
    <path d="M 234.192141 113.407014 
L 174.707624 107.121331 
" clip-path="url(#p8d69742e30)" style="fill: none; stroke: #000000; stroke-width: 2.5; stroke-linecap: square"/>
   </g>
   <g id="line2d_13">
    <path d="M 258.646998 167.730174 
L 234.192141 113.407014 
" clip-path="url(#p8d69742e30)" style="fill: none; stroke: #000000; stroke-width: 2.5; stroke-linecap: square"/>
   </g>
   <g id="line2d_14">
    <path d="M 174.707624 107.121331 
L 139.677302 155.158984 
" clip-path="url(#p8d69742e30)" style="fill: none; stroke: #000000; stroke-width: 2.5; stroke-linecap: square"/>
   </g>
   <g id="patch_2">
    <path d="M 136.207617 115.987819 
Q 136.55792 115.507442 135.920099 116.382097 
" style="fill: none; opacity: 0.4; stroke: #000000; stroke-width: 1.5; stroke-linecap: round"/>
    <path d="M 127.179975 120.899865 
L 135.920099 116.382097 
L 134.290239 126.084857 
" style="fill: none; opacity: 0.4; stroke: #000000; stroke-width: 1.5; stroke-linecap: round"/>
   </g>
   <g id="patch_3">
    <path d="M 46.980164 106.558705 
Q 47.224706 107.101943 46.780847 106.115932 
" style="fill: none; opacity: 0.4; stroke: #000000; stroke-width: 1.5; stroke-linecap: round"/>
    <path d="M 47.180817 96.285366 
L 46.780847 106.115932 
L 39.156377 99.897616 
" style="fill: none; opacity: 0.4; stroke: #000000; stroke-width: 1.5; stroke-linecap: round"/>
   </g>
   <g id="patch_4">
    <path d="M 88.949861 136.863637 
Q 89.544713 136.926497 88.4718 136.813118 
" style="fill: none; opacity: 0.4; stroke: #000000; stroke-width: 1.5; stroke-linecap: round"/>
    <path d="M 80.182916 131.512702 
L 88.4718 136.813118 
L 79.258137 140.263976 
" style="fill: none; opacity: 0.4; stroke: #000000; stroke-width: 1.5; stroke-linecap: round"/>
   </g>
   <g id="patch_5">
    <path d="M 99.526092 34.50252 
Q 98.931247 34.439658 100.004166 34.553042 
" style="fill: none; opacity: 0.4; stroke: #000000; stroke-width: 1.5; stroke-linecap: round"/>
    <path d="M 108.293028 39.853492 
L 100.004166 34.553042 
L 109.217843 31.102222 
" style="fill: none; opacity: 0.4; stroke: #000000; stroke-width: 1.5; stroke-linecap: round"/>
   </g>
   <g id="patch_6">
    <path d="M 141.495567 64.807305 
Q 141.251023 64.264071 141.694889 65.250082 
" style="fill: none; opacity: 0.4; stroke: #000000; stroke-width: 1.5; stroke-linecap: round"/>
    <path d="M 141.294984 75.08065 
L 141.694889 65.250082 
L 149.319401 71.468348 
" style="fill: none; opacity: 0.4; stroke: #000000; stroke-width: 1.5; stroke-linecap: round"/>
   </g>
   <g id="patch_7">
    <path d="M 52.268445 55.378102 
Q 51.918137 55.858476 52.555966 54.983827 
" style="fill: none; opacity: 0.4; stroke: #000000; stroke-width: 1.5; stroke-linecap: round"/>
    <path d="M 61.296131 50.466137 
L 52.555966 54.983827 
L 54.185913 45.281081 
" style="fill: none; opacity: 0.4; stroke: #000000; stroke-width: 1.5; stroke-linecap: round"/>
   </g>
   <g id="patch_8">
    <path d="M 241.13206 191.749148 
Q 241.482358 191.268769 240.844545 192.143429 
" style="fill: none; opacity: 0.4; stroke: #000000; stroke-width: 1.5; stroke-linecap: round"/>
    <path d="M 232.104461 196.661276 
L 240.844545 192.143429 
L 239.214772 201.846204 
" style="fill: none; opacity: 0.4; stroke: #000000; stroke-width: 1.5; stroke-linecap: round"/>
   </g>
   <g id="patch_9">
    <path d="M 151.904622 182.3208 
Q 152.149168 182.864036 151.705301 181.878028 
" style="fill: none; opacity: 0.4; stroke: #000000; stroke-width: 1.5; stroke-linecap: round"/>
    <path d="M 152.105192 172.047459 
L 151.705301 181.878028 
L 144.08078 175.659774 
" style="fill: none; opacity: 0.4; stroke: #000000; stroke-width: 1.5; stroke-linecap: round"/>
   </g>
   <g id="patch_10">
    <path d="M 193.874531 212.625369 
Q 194.469383 212.688224 193.396469 212.574854 
" style="fill: none; opacity: 0.4; stroke: #000000; stroke-width: 1.5; stroke-linecap: round"/>
    <path d="M 185.10754 207.274509 
L 193.396469 212.574854 
L 184.182835 216.02579 
" style="fill: none; opacity: 0.4; stroke: #000000; stroke-width: 1.5; stroke-linecap: round"/>
   </g>
   <g id="patch_11">
    <path d="M 204.449883 110.264172 
Q 203.855038 110.201315 204.927958 110.31469 
" style="fill: none; opacity: 0.4; stroke: #000000; stroke-width: 1.5; stroke-linecap: round"/>
    <path d="M 213.216865 115.61507 
L 204.927958 110.31469 
L 214.141606 106.863792 
" style="fill: none; opacity: 0.4; stroke: #000000; stroke-width: 1.5; stroke-linecap: round"/>
   </g>
   <g id="patch_12">
    <path d="M 246.41957 140.568594 
Q 246.175021 140.025362 246.618896 141.01137 
" style="fill: none; opacity: 0.4; stroke: #000000; stroke-width: 1.5; stroke-linecap: round"/>
    <path d="M 246.21907 150.841942 
L 246.618896 141.01137 
L 254.243458 147.229574 
" style="fill: none; opacity: 0.4; stroke: #000000; stroke-width: 1.5; stroke-linecap: round"/>
   </g>
   <g id="patch_13">
    <path d="M 157.192463 131.140157 
Q 156.84216 131.620534 157.479981 130.745879 
" style="fill: none; opacity: 0.4; stroke: #000000; stroke-width: 1.5; stroke-linecap: round"/>
    <path d="M 166.220105 126.228111 
L 157.479981 130.745879 
L 159.109841 121.043119 
" style="fill: none; opacity: 0.4; stroke: #000000; stroke-width: 1.5; stroke-linecap: round"/>
   </g>
  </g>
 </g>
 <defs>
  <clipPath id="p8d69742e30">
   <rect x="7.2" y="7.2" width="279" height="232.727496"/>
  </clipPath>
 </defs>
</svg>
